<svg width="1365" height="158" viewBox="0 0 1365 158" fill="none" xmlns="http://www.w3.org/2000/svg">
<mask id="mask0_11_1433" style="mask-type:alpha" maskUnits="userSpaceOnUse" x="-72" y="0" width="1468" height="158">
<path d="M-72 0H1396V158H-72V0Z" fill="url(#paint0_linear_11_1433)"/>
</mask>
<g mask="url(#mask0_11_1433)">
<mask id="path-2-outside-1_11_1433" maskUnits="userSpaceOnUse" x="-27.5759" y="4" width="1421" height="178" fill="black">
<rect fill="white" x="-27.5759" y="4" width="1421" height="178"/>
<path d="M76.2554 142.463C77.0293 142.463 77.8032 142.624 78.5771 142.947C79.351 143.205 80.0926 143.688 80.802 144.398L93.7648 158.038C88.0895 165.454 80.9632 171.065 72.3859 174.87C63.8731 178.61 53.7802 180.481 42.1073 180.481C31.4017 180.481 21.7925 178.675 13.2797 175.063C4.83131 171.387 -2.35946 166.357 -8.29266 159.972C-14.1614 153.523 -18.6757 145.913 -21.8358 137.143C-24.9959 128.307 -26.5759 118.73 -26.5759 108.412C-26.5759 97.8996 -24.7702 88.2582 -21.1587 79.4874C-17.5472 70.6521 -12.5168 63.0421 -6.06771 56.6575C0.445906 50.2729 8.2171 45.307 17.2459 41.76C26.2747 38.213 36.2386 36.4395 47.1376 36.4395C52.4259 36.4395 57.3917 36.9232 62.0351 37.8905C66.7429 38.7934 71.1283 40.0832 75.1913 41.76C79.2542 43.3723 82.9947 45.3393 86.4128 47.661C89.8308 49.9182 92.8619 52.4333 95.506 55.2064L84.478 70.0072C83.7686 70.9101 82.9302 71.7484 81.9629 72.5223C80.9955 73.2317 79.6412 73.5864 77.8999 73.5864C76.7391 73.5864 75.6427 73.3285 74.6108 72.8126C73.579 72.2966 72.4826 71.684 71.3218 70.9745C70.161 70.2007 68.8711 69.3945 67.4523 68.5561C66.098 67.6532 64.4535 66.8471 62.5187 66.1377C60.6485 65.3638 58.4235 64.7189 55.8439 64.203C53.3287 63.687 50.3621 63.4291 46.9441 63.4291C41.0109 63.4291 35.5936 64.4932 30.6923 66.6214C25.791 68.6851 21.5668 71.684 18.0198 75.6179C14.5372 79.4874 11.7964 84.1953 9.79714 89.7415C7.8624 95.2877 6.89503 101.511 6.89503 108.412C6.89503 115.635 7.8624 122.052 9.79714 127.662C11.7964 133.273 14.4728 138.013 17.8263 141.883C21.2443 145.688 25.2106 148.59 29.7249 150.589C34.2393 152.588 39.0762 153.588 44.2355 153.588C47.2021 153.588 49.9107 153.459 52.3614 153.201C54.812 152.878 57.0692 152.362 59.1329 151.653C61.2612 150.944 63.2604 150.041 65.1306 148.944C67.0654 147.784 69.0001 146.365 70.9349 144.688C71.7087 144.043 72.5471 143.527 73.45 143.14C74.3529 142.689 75.288 142.463 76.2554 142.463Z"/>
<path d="M259.229 178.933H233.884C231.046 178.933 228.692 178.288 226.822 176.998C225.016 175.644 223.758 173.935 223.049 171.871L214.73 147.3H161.137L152.818 171.871C152.173 173.677 150.916 175.321 149.045 176.805C147.175 178.223 144.886 178.933 142.177 178.933H116.638L171.198 37.9873H204.669L259.229 178.933ZM168.683 125.05H207.184L194.221 86.4524C193.383 84.0018 192.383 81.1319 191.223 77.8429C190.126 74.4893 189.03 70.8778 187.934 67.0083C186.902 70.9423 185.838 74.5861 184.741 77.9396C183.645 81.2931 182.613 84.1952 181.646 86.6459L168.683 125.05Z"/>
<path d="M322.747 152.814H374.985V178.933H290.05V37.9873H322.747V152.814Z"/>
<path d="M500.463 37.9873V63.1389H442.615V96.0294H486.92V120.214H442.615V153.781H500.463V178.933H409.724V37.9873H500.463Z"/>
<path d="M555.686 37.9873C557.105 37.9873 558.298 38.0518 559.266 38.1808C560.233 38.3097 561.104 38.5677 561.878 38.9546C562.651 39.2771 563.393 39.7608 564.102 40.4057C564.812 41.0506 565.618 41.9212 566.521 43.0176L633.463 127.662C633.205 124.954 633.011 122.342 632.882 119.827C632.753 117.247 632.689 114.829 632.689 112.571V37.9873H661.517V178.933H644.491C641.976 178.933 639.847 178.546 638.106 177.772C636.365 176.998 634.688 175.579 633.076 173.516L566.618 89.548C566.811 91.9987 566.972 94.4171 567.101 96.8033C567.23 99.125 567.295 101.318 567.295 103.381V178.933H538.467V37.9873H555.686Z"/>
<path d="M831.94 108.412C831.94 118.601 830.166 128.017 826.619 136.659C823.137 145.236 818.203 152.685 811.818 159.005C805.434 165.261 797.727 170.162 788.698 173.709C779.734 177.192 769.77 178.933 758.807 178.933H704.054V37.9873H758.807C769.77 37.9873 779.734 39.7608 788.698 43.3078C797.727 46.8548 805.434 51.7562 811.818 58.0118C818.203 64.2675 823.137 71.7162 826.619 80.358C830.166 88.9354 831.94 98.2866 831.94 108.412ZM798.469 108.412C798.469 101.447 797.566 95.1588 795.76 89.548C793.954 83.9373 791.342 79.1972 787.924 75.3277C784.571 71.3937 780.443 68.3949 775.542 66.3312C770.641 64.203 765.062 63.1389 758.807 63.1389H736.944V153.781H758.807C765.062 153.781 770.641 152.749 775.542 150.686C780.443 148.558 784.571 145.559 787.924 141.689C791.342 137.755 793.954 132.983 795.76 127.372C797.566 121.761 798.469 115.441 798.469 108.412Z"/>
<path d="M992.313 178.933H966.968C964.13 178.933 961.776 178.288 959.906 176.998C958.1 175.644 956.843 173.935 956.133 171.871L947.814 147.3H894.222L885.902 171.871C885.257 173.677 884 175.321 882.129 176.805C880.259 178.223 877.97 178.933 875.261 178.933H849.723L904.282 37.9873H937.753L992.313 178.933ZM901.767 125.05H940.268L927.306 86.4524C926.467 84.0018 925.468 81.1319 924.307 77.8429C923.21 74.4893 922.114 70.8778 921.018 67.0083C919.986 70.9423 918.922 74.5861 917.825 77.9396C916.729 81.2931 915.697 84.1952 914.73 86.6459L901.767 125.05ZM958.609 5L941.167 25.7017C939.49 26.9915 937.91 27.8621 936.427 28.3136C935.008 28.7005 933.203 28.894 931.01 28.894H907.213L924.722 9.83685C925.56 8.86948 926.367 8.09558 927.14 7.51516C927.979 6.87025 928.849 6.35432 929.752 5.96737C930.655 5.58043 931.655 5.32246 932.751 5.19347C933.848 5.06449 935.137 5 936.621 5H958.609Z"/>
<path d="M1055.83 126.792V178.933H1023.13V37.9873H1068.99C1079.18 37.9873 1087.85 39.0514 1095.01 41.1796C1102.23 43.2433 1108.1 46.1454 1112.62 49.8859C1117.19 53.6264 1120.52 58.0441 1122.58 63.1389C1124.64 68.2337 1125.68 73.7799 1125.68 79.7776C1125.68 84.3565 1125.06 88.6774 1123.84 92.7403C1122.61 96.8033 1120.77 100.576 1118.32 104.059C1115.94 107.477 1112.97 110.54 1109.42 113.249C1105.94 115.957 1101.91 118.182 1097.33 119.923C1099.52 121.02 1101.56 122.374 1103.43 123.986C1105.36 125.599 1107.04 127.566 1108.46 129.887L1138.44 178.933H1108.84C1103.36 178.933 1099.43 176.869 1097.04 172.742L1073.63 131.822C1072.6 130.016 1071.37 128.726 1069.95 127.953C1068.6 127.179 1066.67 126.792 1064.15 126.792H1055.83ZM1055.83 104.252H1068.99C1073.44 104.252 1077.21 103.704 1080.31 102.608C1083.47 101.447 1086.05 99.8666 1088.04 97.8674C1090.04 95.8682 1091.49 93.5465 1092.4 90.9023C1093.3 88.1937 1093.75 85.2916 1093.75 82.196C1093.75 76.0049 1091.72 71.168 1087.66 67.6855C1083.66 64.203 1077.44 62.4617 1068.99 62.4617H1055.83V104.252Z"/>
<path d="M1206.94 178.933H1174.05V37.9873H1206.94V178.933Z"/>
<path d="M1391.58 108.412C1391.58 118.601 1389.8 128.082 1386.26 136.852C1382.77 145.623 1377.84 153.265 1371.45 159.779C1365.07 166.228 1357.36 171.291 1348.33 174.967C1339.37 178.643 1329.41 180.481 1318.44 180.481C1307.48 180.481 1297.48 178.643 1288.45 174.967C1279.43 171.291 1271.69 166.228 1265.24 159.779C1258.85 153.265 1253.89 145.623 1250.34 136.852C1246.86 128.082 1245.12 118.601 1245.12 108.412C1245.12 98.2221 1246.86 88.7419 1250.34 79.9711C1253.89 71.2003 1258.85 63.5903 1265.24 57.1412C1271.69 50.692 1279.43 45.6295 1288.45 41.9535C1297.48 38.2775 1307.48 36.4395 1318.44 36.4395C1329.41 36.4395 1339.37 38.3097 1348.33 42.0502C1357.36 45.7262 1365.07 50.7888 1371.45 57.2379C1377.84 63.687 1382.77 71.297 1386.26 80.0678C1389.8 88.8386 1391.58 98.2866 1391.58 108.412ZM1358.11 108.412C1358.11 101.447 1357.2 95.191 1355.4 89.6448C1353.59 84.034 1350.98 79.2939 1347.56 75.4244C1344.21 71.555 1340.08 68.5884 1335.18 66.5247C1330.28 64.4609 1324.7 63.4291 1318.44 63.4291C1312.12 63.4291 1306.48 64.4609 1301.51 66.5247C1296.61 68.5884 1292.45 71.555 1289.04 75.4244C1285.68 79.2939 1283.1 84.034 1281.3 89.6448C1279.49 95.191 1278.59 101.447 1278.59 108.412C1278.59 115.441 1279.49 121.761 1281.3 127.372C1283.1 132.918 1285.68 137.626 1289.04 141.496C1292.45 145.365 1296.61 148.332 1301.51 150.396C1306.48 152.395 1312.12 153.394 1318.44 153.394C1324.7 153.394 1330.28 152.395 1335.18 150.396C1340.08 148.332 1344.21 145.365 1347.56 141.496C1350.98 137.626 1353.59 132.918 1355.4 127.372C1357.2 121.761 1358.11 115.441 1358.11 108.412Z"/>
</mask>
<path d="M76.2554 142.463C77.0293 142.463 77.8032 142.624 78.5771 142.947C79.351 143.205 80.0926 143.688 80.802 144.398L93.7648 158.038C88.0895 165.454 80.9632 171.065 72.3859 174.87C63.8731 178.61 53.7802 180.481 42.1073 180.481C31.4017 180.481 21.7925 178.675 13.2797 175.063C4.83131 171.387 -2.35946 166.357 -8.29266 159.972C-14.1614 153.523 -18.6757 145.913 -21.8358 137.143C-24.9959 128.307 -26.5759 118.73 -26.5759 108.412C-26.5759 97.8996 -24.7702 88.2582 -21.1587 79.4874C-17.5472 70.6521 -12.5168 63.0421 -6.06771 56.6575C0.445906 50.2729 8.2171 45.307 17.2459 41.76C26.2747 38.213 36.2386 36.4395 47.1376 36.4395C52.4259 36.4395 57.3917 36.9232 62.0351 37.8905C66.7429 38.7934 71.1283 40.0832 75.1913 41.76C79.2542 43.3723 82.9947 45.3393 86.4128 47.661C89.8308 49.9182 92.8619 52.4333 95.506 55.2064L84.478 70.0072C83.7686 70.9101 82.9302 71.7484 81.9629 72.5223C80.9955 73.2317 79.6412 73.5864 77.8999 73.5864C76.7391 73.5864 75.6427 73.3285 74.6108 72.8126C73.579 72.2966 72.4826 71.684 71.3218 70.9745C70.161 70.2007 68.8711 69.3945 67.4523 68.5561C66.098 67.6532 64.4535 66.8471 62.5187 66.1377C60.6485 65.3638 58.4235 64.7189 55.8439 64.203C53.3287 63.687 50.3621 63.4291 46.9441 63.4291C41.0109 63.4291 35.5936 64.4932 30.6923 66.6214C25.791 68.6851 21.5668 71.684 18.0198 75.6179C14.5372 79.4874 11.7964 84.1953 9.79714 89.7415C7.8624 95.2877 6.89503 101.511 6.89503 108.412C6.89503 115.635 7.8624 122.052 9.79714 127.662C11.7964 133.273 14.4728 138.013 17.8263 141.883C21.2443 145.688 25.2106 148.59 29.7249 150.589C34.2393 152.588 39.0762 153.588 44.2355 153.588C47.2021 153.588 49.9107 153.459 52.3614 153.201C54.812 152.878 57.0692 152.362 59.1329 151.653C61.2612 150.944 63.2604 150.041 65.1306 148.944C67.0654 147.784 69.0001 146.365 70.9349 144.688C71.7087 144.043 72.5471 143.527 73.45 143.14C74.3529 142.689 75.288 142.463 76.2554 142.463Z" stroke="#256AC3" stroke-width="2" mask="url(#path-2-outside-1_11_1433)"/>
<path d="M259.229 178.933H233.884C231.046 178.933 228.692 178.288 226.822 176.998C225.016 175.644 223.758 173.935 223.049 171.871L214.73 147.3H161.137L152.818 171.871C152.173 173.677 150.916 175.321 149.045 176.805C147.175 178.223 144.886 178.933 142.177 178.933H116.638L171.198 37.9873H204.669L259.229 178.933ZM168.683 125.05H207.184L194.221 86.4524C193.383 84.0018 192.383 81.1319 191.223 77.8429C190.126 74.4893 189.03 70.8778 187.934 67.0083C186.902 70.9423 185.838 74.5861 184.741 77.9396C183.645 81.2931 182.613 84.1952 181.646 86.6459L168.683 125.05Z" stroke="#256AC3" stroke-width="2" mask="url(#path-2-outside-1_11_1433)"/>
<path d="M322.747 152.814H374.985V178.933H290.05V37.9873H322.747V152.814Z" stroke="#256AC3" stroke-width="2" mask="url(#path-2-outside-1_11_1433)"/>
<path d="M500.463 37.9873V63.1389H442.615V96.0294H486.92V120.214H442.615V153.781H500.463V178.933H409.724V37.9873H500.463Z" stroke="#256AC3" stroke-width="2" mask="url(#path-2-outside-1_11_1433)"/>
<path d="M555.686 37.9873C557.105 37.9873 558.298 38.0518 559.266 38.1808C560.233 38.3097 561.104 38.5677 561.878 38.9546C562.651 39.2771 563.393 39.7608 564.102 40.4057C564.812 41.0506 565.618 41.9212 566.521 43.0176L633.463 127.662C633.205 124.954 633.011 122.342 632.882 119.827C632.753 117.247 632.689 114.829 632.689 112.571V37.9873H661.517V178.933H644.491C641.976 178.933 639.847 178.546 638.106 177.772C636.365 176.998 634.688 175.579 633.076 173.516L566.618 89.548C566.811 91.9987 566.972 94.4171 567.101 96.8033C567.23 99.125 567.295 101.318 567.295 103.381V178.933H538.467V37.9873H555.686Z" stroke="#256AC3" stroke-width="2" mask="url(#path-2-outside-1_11_1433)"/>
<path d="M831.94 108.412C831.94 118.601 830.166 128.017 826.619 136.659C823.137 145.236 818.203 152.685 811.818 159.005C805.434 165.261 797.727 170.162 788.698 173.709C779.734 177.192 769.77 178.933 758.807 178.933H704.054V37.9873H758.807C769.77 37.9873 779.734 39.7608 788.698 43.3078C797.727 46.8548 805.434 51.7562 811.818 58.0118C818.203 64.2675 823.137 71.7162 826.619 80.358C830.166 88.9354 831.94 98.2866 831.94 108.412ZM798.469 108.412C798.469 101.447 797.566 95.1588 795.76 89.548C793.954 83.9373 791.342 79.1972 787.924 75.3277C784.571 71.3937 780.443 68.3949 775.542 66.3312C770.641 64.203 765.062 63.1389 758.807 63.1389H736.944V153.781H758.807C765.062 153.781 770.641 152.749 775.542 150.686C780.443 148.558 784.571 145.559 787.924 141.689C791.342 137.755 793.954 132.983 795.76 127.372C797.566 121.761 798.469 115.441 798.469 108.412Z" stroke="#256AC3" stroke-width="2" mask="url(#path-2-outside-1_11_1433)"/>
<path d="M992.313 178.933H966.968C964.13 178.933 961.776 178.288 959.906 176.998C958.1 175.644 956.843 173.935 956.133 171.871L947.814 147.3H894.222L885.902 171.871C885.257 173.677 884 175.321 882.129 176.805C880.259 178.223 877.97 178.933 875.261 178.933H849.723L904.282 37.9873H937.753L992.313 178.933ZM901.767 125.05H940.268L927.306 86.4524C926.467 84.0018 925.468 81.1319 924.307 77.8429C923.21 74.4893 922.114 70.8778 921.018 67.0083C919.986 70.9423 918.922 74.5861 917.825 77.9396C916.729 81.2931 915.697 84.1952 914.73 86.6459L901.767 125.05ZM958.609 5L941.167 25.7017C939.49 26.9915 937.91 27.8621 936.427 28.3136C935.008 28.7005 933.203 28.894 931.01 28.894H907.213L924.722 9.83685C925.56 8.86948 926.367 8.09558 927.14 7.51516C927.979 6.87025 928.849 6.35432 929.752 5.96737C930.655 5.58043 931.655 5.32246 932.751 5.19347C933.848 5.06449 935.137 5 936.621 5H958.609Z" stroke="#256AC3" stroke-width="2" mask="url(#path-2-outside-1_11_1433)"/>
<path d="M1055.83 126.792V178.933H1023.13V37.9873H1068.99C1079.18 37.9873 1087.85 39.0514 1095.01 41.1796C1102.23 43.2433 1108.1 46.1454 1112.62 49.8859C1117.19 53.6264 1120.52 58.0441 1122.58 63.1389C1124.64 68.2337 1125.68 73.7799 1125.68 79.7776C1125.68 84.3565 1125.06 88.6774 1123.84 92.7403C1122.61 96.8033 1120.77 100.576 1118.32 104.059C1115.94 107.477 1112.97 110.54 1109.42 113.249C1105.94 115.957 1101.91 118.182 1097.33 119.923C1099.52 121.02 1101.56 122.374 1103.43 123.986C1105.36 125.599 1107.04 127.566 1108.46 129.887L1138.44 178.933H1108.84C1103.36 178.933 1099.43 176.869 1097.04 172.742L1073.63 131.822C1072.6 130.016 1071.37 128.726 1069.95 127.953C1068.6 127.179 1066.67 126.792 1064.15 126.792H1055.83ZM1055.83 104.252H1068.99C1073.44 104.252 1077.21 103.704 1080.31 102.608C1083.47 101.447 1086.05 99.8666 1088.04 97.8674C1090.04 95.8682 1091.49 93.5465 1092.4 90.9023C1093.3 88.1937 1093.75 85.2916 1093.75 82.196C1093.75 76.0049 1091.72 71.168 1087.66 67.6855C1083.66 64.203 1077.44 62.4617 1068.99 62.4617H1055.83V104.252Z" stroke="#256AC3" stroke-width="2" mask="url(#path-2-outside-1_11_1433)"/>
<path d="M1206.94 178.933H1174.05V37.9873H1206.94V178.933Z" stroke="#256AC3" stroke-width="2" mask="url(#path-2-outside-1_11_1433)"/>
<path d="M1391.58 108.412C1391.58 118.601 1389.8 128.082 1386.26 136.852C1382.77 145.623 1377.84 153.265 1371.45 159.779C1365.07 166.228 1357.36 171.291 1348.33 174.967C1339.37 178.643 1329.41 180.481 1318.44 180.481C1307.48 180.481 1297.48 178.643 1288.45 174.967C1279.43 171.291 1271.69 166.228 1265.24 159.779C1258.85 153.265 1253.89 145.623 1250.34 136.852C1246.86 128.082 1245.12 118.601 1245.12 108.412C1245.12 98.2221 1246.86 88.7419 1250.34 79.9711C1253.89 71.2003 1258.85 63.5903 1265.24 57.1412C1271.69 50.692 1279.43 45.6295 1288.45 41.9535C1297.48 38.2775 1307.48 36.4395 1318.44 36.4395C1329.41 36.4395 1339.37 38.3097 1348.33 42.0502C1357.36 45.7262 1365.07 50.7888 1371.45 57.2379C1377.84 63.687 1382.77 71.297 1386.26 80.0678C1389.8 88.8386 1391.58 98.2866 1391.58 108.412ZM1358.11 108.412C1358.11 101.447 1357.2 95.191 1355.4 89.6448C1353.59 84.034 1350.98 79.2939 1347.56 75.4244C1344.21 71.555 1340.08 68.5884 1335.18 66.5247C1330.28 64.4609 1324.7 63.4291 1318.44 63.4291C1312.12 63.4291 1306.48 64.4609 1301.51 66.5247C1296.61 68.5884 1292.45 71.555 1289.04 75.4244C1285.68 79.2939 1283.1 84.034 1281.3 89.6448C1279.49 95.191 1278.59 101.447 1278.59 108.412C1278.59 115.441 1279.49 121.761 1281.3 127.372C1283.1 132.918 1285.68 137.626 1289.04 141.496C1292.45 145.365 1296.61 148.332 1301.51 150.396C1306.48 152.395 1312.12 153.394 1318.44 153.394C1324.7 153.394 1330.28 152.395 1335.18 150.396C1340.08 148.332 1344.21 145.365 1347.56 141.496C1350.98 137.626 1353.59 132.918 1355.4 127.372C1357.2 121.761 1358.11 115.441 1358.11 108.412Z" stroke="#256AC3" stroke-width="2" mask="url(#path-2-outside-1_11_1433)"/>
</g>
<defs>
<linearGradient id="paint0_linear_11_1433" x1="662" y1="0" x2="662" y2="158" gradientUnits="userSpaceOnUse">
<stop stop-color="white" stop-opacity="0"/>
<stop offset="1" stop-color="white"/>
</linearGradient>
</defs>
</svg>
