<svg width="863" height="649" viewBox="0 0 863 649" fill="none" xmlns="http://www.w3.org/2000/svg">
<g clip-path="url(#clip0_7_723)">
<path d="M850.845 297.068C848.395 296.87 845.963 297.624 844.053 299.173C839.902 299.173 835.617 297.877 831.763 300.549C826.561 301.116 821.117 299.47 816.157 302.277C815.667 302.116 815.138 302.116 814.648 302.277L812.842 301.872C812.882 301.477 812.882 301.079 812.842 300.684C821.254 294.012 828.285 285.761 833.542 276.392C836.156 274.137 838.034 271.146 838.932 267.809C842.085 265.11 842.274 260.845 844.08 257.444C846.146 255.089 847.353 252.101 847.503 248.969C849.59 245.818 850.749 242.142 850.845 238.361C852.389 235.842 853.044 232.876 852.704 229.94C854.28 227.266 854.817 224.105 854.214 221.06L854.537 218.01C856.558 213.907 855.75 209.615 855.426 205.351C855.75 200.681 856.585 195.985 854.564 191.45L853.998 184.783C854.195 183.844 854.182 182.872 853.958 181.938C853.734 181.005 853.306 180.133 852.704 179.385C852.947 177.927 852.704 176.686 851.114 176.146C851.674 173.331 851.364 170.412 850.225 167.779C850.043 165.116 849.108 162.56 847.53 160.41L845.481 157.252C844.053 155.066 845.104 151.854 842.786 150.072C841.877 144.519 839.279 139.382 835.347 135.362C833.407 132.123 832.383 128.263 829.094 125.888C828.012 123.128 826.136 120.751 823.704 119.059C822.008 116.191 819.592 113.818 816.697 112.176C813.031 105.698 805.916 103.323 800.768 98.4917C793.383 91.6629 785.325 86.0757 775.002 84.996C769.153 81.4061 763.467 77.4114 756.136 77.8703L757.402 78.599C756.905 78.5203 756.454 78.2608 756.136 77.8703C748.212 75.8999 740.369 73.0658 731.879 74.3074C728.429 74.0645 724.979 72.7959 721.529 74.3074L714.63 74.5773H712.824C706.379 74.1597 699.924 75.2309 693.958 77.7083L692.206 78.0322C688.497 77.9957 684.863 79.0772 681.775 81.1362C678.587 81.3704 675.565 82.6512 673.178 84.7801C672.533 84.5896 671.845 84.6158 671.217 84.8547C670.589 85.0936 670.056 85.5319 669.701 86.1026C661.187 89.1979 653.359 93.929 646.657 100.03C641.928 102.598 637.781 106.118 634.475 110.368C628.952 114.693 624.251 119.978 620.594 125.969C618.344 127.782 616.668 130.211 615.77 132.96C611.839 137.542 608.861 142.864 607.011 148.615C604.712 151.688 603.186 155.271 602.564 159.06C600.652 162.211 599.482 165.755 599.141 169.425C597.883 171.5 597.29 173.912 597.443 176.335C594.101 187.132 594.047 198.144 593.697 209.211L578.361 198.09C575.449 194.642 571.944 191.744 568.011 189.534C561.638 183.161 554.701 177.379 547.285 172.259C544.389 168.784 540.892 165.859 536.963 163.622C534.053 160.164 530.548 157.257 526.613 155.039C520.906 149.187 514.58 143.974 507.747 139.492C505.363 136.537 502.376 134.126 498.987 132.42C496.658 129.516 493.7 127.181 490.336 125.591C485.711 120.906 480.47 116.875 474.758 113.607C471.305 109.992 467.28 106.974 462.845 104.673C460.948 102.458 458.544 100.735 455.838 99.6523C450.367 94.9669 444.526 90.7334 438.373 86.9933C436.781 85.9122 435.125 84.9297 433.414 84.0513C426.568 79.3818 419.938 74.4693 412.822 70.0697C363.419 39.1646 311.483 14.2785 253.483 4.21066C246.637 3.02304 239.306 4.07571 233.053 0H182.95C179.742 3.67083 175.107 2.48321 171.118 3.34694C164.676 4.77748 158.073 5.56023 151.685 7.17972C145.298 8.7992 138.775 9.63593 131.471 14.0085C155.364 13.3212 179.258 15.3221 202.705 19.9737C271.513 33.8472 330.376 67.3166 383.606 111.933C412.364 136.037 437.726 163.433 461.767 192.071C468.954 201.806 476.213 211.532 483.544 221.249L497.424 242.005L518.15 276.554L536.019 311.238C546.046 335.152 556.934 358.743 563.915 383.845L531.761 383.44C527.237 382.143 522.515 381.685 517.827 382.091L512.841 381.632C510.096 380.367 507.044 379.927 504.054 380.363H502.276C498.997 378.994 495.443 378.411 491.899 378.663L488.476 378.447C483.086 378.609 478.504 374.398 472.925 375.235C449.935 369.324 427.107 363.332 402.634 353.345C420.773 378.528 434.06 403.549 447.213 428.651C448.637 433.608 450.799 438.321 453.627 442.632L454.921 446.276L462.683 464.954C463.038 468.143 464.157 471.199 465.944 473.861C465.828 474.102 465.801 474.376 465.871 474.634C465.94 474.892 466.1 475.116 466.322 475.265C467.271 480.115 468.904 484.804 471.173 489.193C471.135 491.627 471.83 494.016 473.168 496.048C474.022 501.47 475.572 506.759 477.776 511.784C478.206 517.096 479.499 522.302 481.604 527.196C481.873 532.546 482.983 537.82 484.892 542.825C485.376 549.819 486.568 556.747 488.449 563.5C488.406 568.742 489.086 573.965 490.471 579.02L492.25 598.103L492.411 603.204C492.708 607.388 492.977 611.545 493.274 615.728C493.135 616.034 493.064 616.365 493.064 616.7C493.064 617.035 493.135 617.367 493.274 617.672C492.878 634.784 492.483 651.879 492.088 668.955L490.228 689.658C487.874 704.053 485.547 718.449 483.248 732.844L465.621 796.706C460.446 809.968 455.254 823.202 450.043 836.41L434.572 868.8C427.673 881.054 420.755 893.308 413.82 905.562L398.376 929.288L386.005 946.724L386.382 947.183L385.951 946.751C383.768 948.445 382.075 950.69 381.046 953.256L356.789 982.947C353.517 985.464 350.77 988.601 348.704 992.178C346.788 993.108 345.316 994.756 344.607 996.766C345.625 997.211 346.769 997.273 347.828 996.941C348.888 996.609 349.792 995.905 350.375 994.958L363.123 987.184C366.357 985.457 369.645 983.864 372.826 982.029C430.316 948.832 484.908 910.838 536.019 868.449C566.317 843.779 594.873 817.038 621.484 788.42C624.888 786.038 627.783 783.001 630.001 779.485C635.553 774.654 641.051 769.768 643.962 762.724C646.863 761.434 649.451 759.531 651.549 757.145C653.647 754.76 655.205 751.949 656.117 748.904C662.154 746.772 664.553 741.104 668.057 736.515C670.478 734.964 672.36 732.701 673.447 730.037C676.974 727.108 679.879 723.502 681.991 719.429C684.401 717.761 686.274 715.425 687.381 712.709C691.936 707.31 697.677 702.695 699.321 695.272C706.086 691.223 709.185 684.233 713.147 677.944C714.916 676.772 716.185 674.982 716.705 672.923C719.098 670.974 720.884 668.38 721.853 665.447C724.855 662.643 727.178 659.191 728.645 655.352C732.357 651.422 735.325 646.849 737.404 641.856C742.613 635.217 747.086 628.031 750.745 620.425C753.81 616.886 756.13 612.764 757.564 608.306C760.678 604.771 763.076 600.664 764.625 596.214C765.639 595.361 766.465 594.306 767.049 593.117C767.634 591.927 767.965 590.628 768.021 589.304C769.504 587.144 771.822 585.498 771.983 582.583C774.187 580.02 775.79 576.995 776.673 573.73C780.304 568.388 783.213 562.588 785.325 556.482C787.625 553.346 789.333 549.815 790.365 546.063C793.481 541.277 795.853 536.044 797.399 530.543C799.927 526.891 801.755 522.8 802.789 518.478C805.443 514.51 807.276 510.05 808.18 505.36C811.483 500.021 813.811 494.135 815.052 487.978C819.257 484.064 817.263 477.991 820.012 473.565C822.707 471.432 823.138 468.166 823.542 465.089C825.593 462.032 826.793 458.482 827.019 454.806C829.073 451.641 830.262 447.993 830.469 444.225C831.135 443.565 831.632 442.755 831.918 441.862C832.204 440.969 832.271 440.021 832.113 439.096C834.666 433.583 836.409 427.728 837.288 421.714C839.912 415.7 841.646 409.335 842.436 402.82C844.381 398.449 845.558 393.773 845.912 389C845.909 387.786 846.026 386.574 846.263 385.384C846.263 386.571 846.074 387.786 845.912 389C848.456 381.723 850.165 374.18 851.006 366.517C853.401 359.934 854.623 352.982 854.618 345.976C857.419 336.303 859.11 326.342 859.658 316.285C860.278 312.831 860.898 309.403 861.544 305.948H863.162V293.856C858.876 294.045 854.678 295.139 850.845 297.068ZM557.5 584.256V583.447C557.95 583.761 558.428 584.032 558.928 584.256C558.454 584.31 557.975 584.31 557.5 584.256ZM550.6 478.801V479.017L550.385 479.314L550.52 478.801H550.6ZM582.592 594.675C582.727 594.378 582.943 594.297 583.293 594.675C583.064 594.613 582.822 594.613 582.592 594.675ZM740.962 501.123C740.846 500.905 740.773 500.667 740.746 500.421C740.83 500.651 740.902 500.885 740.962 501.123ZM782.441 287.729C782.235 287.481 782.045 287.219 781.875 286.946H782.548C782.495 287.135 782.468 287.432 782.441 287.729ZM707.649 129.721C707.649 129.559 707.649 129.424 707.649 129.262H708L707.649 129.721ZM805.727 303.114L805.565 302.763H805.997L805.727 303.114ZM583.051 606.254C583.051 606.254 583.051 606.416 583.051 606.497V606.254ZM851.545 228.374C851.758 228.66 851.939 228.967 852.084 229.292C852.004 228.833 851.815 228.536 851.653 228.266L851.545 228.374ZM358.595 986.591L358.757 986.914H358.595C358.595 986.914 358.595 986.698 358.595 986.591Z" fill="#E3E3E3"/>
<path d="M273.508 157.522C273.799 153.355 273.352 149.17 272.187 145.16C271.772 139.002 270.285 132.964 267.794 127.318L266.069 125.969C266.681 123.711 266.401 121.304 265.288 119.248C264.535 115.483 262.972 111.927 260.706 108.829C260.644 107.561 260.29 106.324 259.673 105.214C259.056 104.105 258.192 103.153 257.148 102.432L251.973 95.0906C251.638 92.4291 250.344 89.9817 248.335 88.2078C247.211 84.6459 244.983 81.5354 241.974 79.3276L239.01 75.7378C231.222 65.9103 221.59 57.7037 210.656 51.5804C198.749 43.1239 185.178 37.3083 170.848 34.5219L167.371 34.6838C166.866 34.5685 166.352 34.4962 165.835 34.4679C153.383 28.7997 140.419 28.9076 127.267 30.878C122.624 30.344 117.921 30.927 113.548 32.5785L110.638 33.0643C108.206 32.7587 105.746 33.3434 103.711 34.7108C98.2045 35.176 92.8766 36.8931 88.1327 39.7312C87.4866 39.6106 86.8195 39.6759 86.2089 39.9196C85.5983 40.1632 85.0692 40.5752 84.6829 41.1078C67.8832 47.2474 52.8122 57.3589 40.7513 70.5824C35.8859 74.4337 31.7661 79.145 28.596 84.483C26.3566 86.3119 24.6756 88.7342 23.7446 91.4738C20.8118 94.4313 18.6305 98.0505 17.384 102.027C15.4756 103.847 14.2483 106.267 13.9072 108.883C11.3476 112.5 9.61734 116.638 8.84022 121.002C6.51497 125.241 5.15293 129.941 4.85134 134.768C4.24566 135.48 3.81745 136.326 3.60192 137.237C3.38639 138.147 3.38969 139.096 3.61156 140.004C1.67102 142.703 3.34204 146.671 0 148.669V184.972C3.36899 186.295 0.997219 190.37 3.31508 192.152C2.90649 194.487 3.37702 196.891 4.63572 198.9C5.97373 208.059 9.01821 216.886 13.6107 224.919C15.8783 231.742 19.4482 238.058 24.122 243.516C37.9932 265.458 58.4215 282.46 82.4998 292.101C88.7841 295.849 95.7778 298.248 103.037 299.146C104.032 299.873 105.162 300.394 106.361 300.677C107.56 300.96 108.803 300.999 110.018 300.792C113.732 302.468 117.828 303.111 121.877 302.655C133.462 304.921 145.391 304.765 156.914 302.196C161.689 302.284 166.424 301.297 170.767 299.308C173.79 299.366 176.766 298.55 179.338 296.96L184.513 295.205C187.605 294.678 190.541 293.471 193.11 291.669C196.869 290.631 200.386 288.861 203.46 286.46C207.353 285.053 210.893 282.815 213.836 279.901C217.284 278.528 220.313 276.277 222.623 273.369L225.911 270.67C229.343 268.636 232.288 265.872 234.535 262.572C238.302 259.988 241.294 256.423 243.187 252.262C249.036 247.781 252.324 241.465 255.396 235.014C258.043 232.116 259.899 228.583 260.787 224.757C261.334 224.365 261.765 223.832 262.036 223.214C262.306 222.597 262.405 221.918 262.323 221.249C264.819 217.626 266.426 213.464 267.013 209.102C269.351 204.238 270.68 198.949 270.921 193.555C272.402 190.277 272.97 186.658 272.565 183.083C274.497 174.657 274.726 165.929 273.238 157.414L273.508 157.522ZM263.913 125.969C264.245 126.293 264.689 126.476 265.153 126.482C264.927 126.515 264.697 126.499 264.478 126.433C264.259 126.368 264.057 126.256 263.886 126.104C263.455 125.78 263.051 125.348 262.619 125.024C262.878 125.111 263.116 125.249 263.32 125.429C263.364 125.563 263.441 125.683 263.545 125.778C263.649 125.872 263.776 125.938 263.913 125.969ZM191.817 169.236H191.493H191.817ZM144.974 91.6087C144.974 91.6087 144.974 91.8247 144.974 91.9326H144.813L145.082 91.6627L144.974 91.6087ZM134.625 79.5166C134.625 79.5166 134.625 79.2736 134.625 79.1657L135.11 79.3546C134.955 79.4266 134.792 79.4809 134.625 79.5166ZM160.66 181.733V181.517H160.849C160.849 181.517 160.687 181.679 160.66 181.733ZM98.3744 141.759L98.1049 141.462H98.2936L98.3744 141.759ZM169.285 214.636L169.15 214.339H169.339C169.351 214.441 169.332 214.544 169.285 214.636ZM230.843 198.819C230.843 198.657 230.843 198.495 230.843 198.36L231.247 198.792L230.843 198.819ZM240.061 198.819H240.249C240.249 198.819 240.168 198.657 240.007 198.711L240.061 198.819ZM242.001 125.942C241.884 126.11 241.758 126.272 241.624 126.428C241.637 126.239 241.637 126.05 241.624 125.861L242.001 125.942ZM231.22 81.4599V81.325H231.463L231.22 81.4599ZM83.8743 102.729C84.7179 103.167 85.6291 103.459 86.5695 103.593C85.5981 103.628 84.645 103.322 83.8743 102.729ZM69.0238 115.469V115.739V115.496V115.469Z" fill="#E3E3E3"/>
</g>
<defs>
<clipPath id="clip0_7_723">
<rect width="863" height="1004" fill="white"/>
</clipPath>
</defs>
</svg>
