<svg width="226" height="63" viewBox="0 0 226 63" fill="none" xmlns="http://www.w3.org/2000/svg">
<path d="M23.1891 32.8689C22.4493 32.8682 21.7263 32.6482 21.1115 32.2368C20.4967 31.8253 20.0177 31.2408 19.7351 30.5571C19.4524 29.8735 19.3788 29.1213 19.5235 28.3958C19.6683 27.6704 20.0248 27.0041 20.5482 26.4812C21.0715 25.9583 21.7381 25.6023 22.4637 25.4582C23.1894 25.3141 23.9414 25.3884 24.6248 25.6717C25.3082 25.9549 25.8923 26.4344 26.3033 27.0496C26.7142 27.6648 26.9335 28.3879 26.9335 29.1277C26.9326 30.1202 26.5378 31.0718 25.8356 31.7733C25.1335 32.4748 24.1816 32.8689 23.1891 32.8689Z" fill="#00AEEE"/>
<path d="M51.4201 38.4362C50.6405 38.4362 49.8785 38.205 49.2303 37.7719C48.5821 37.3388 48.0769 36.7233 47.7786 36.003C47.4803 35.2828 47.4022 34.4903 47.5543 33.7258C47.7064 32.9612 48.0818 32.2589 48.633 31.7077C49.1842 31.1564 49.8865 30.781 50.6511 30.629C51.4157 30.4769 52.2082 30.5549 52.9284 30.8532C53.6486 31.1516 54.2642 31.6567 54.6973 32.3049C55.1304 32.9531 55.3616 33.7152 55.3616 34.4947C55.3616 35.5401 54.9463 36.5426 54.2071 37.2818C53.4679 38.0209 52.4654 38.4362 51.4201 38.4362Z" fill="#00AEEE"/>
<path d="M25.2059 53.2135C24.4302 53.2135 23.672 52.9835 23.027 52.5525C22.3821 52.1216 21.8794 51.5091 21.5826 50.7925C21.2858 50.0759 21.2081 49.2873 21.3594 48.5266C21.5108 47.7658 21.8843 47.067 22.4327 46.5186C22.9812 45.9701 23.68 45.5966 24.4408 45.4453C25.2015 45.2939 25.9901 45.3716 26.7067 45.6684C27.4233 45.9653 28.0358 46.4679 28.4667 47.1129C28.8976 47.7578 29.1276 48.516 29.1276 49.2917C29.1268 50.3315 28.7133 51.3286 27.978 52.0639C27.2427 52.7991 26.2457 53.2126 25.2059 53.2135Z" fill="#00AEEE"/>
<path d="M41.3397 21.4352C40.6034 21.4358 39.8834 21.2181 39.2709 20.8094C38.6585 20.4007 38.181 19.8195 37.8989 19.1394C37.6168 18.4593 37.5428 17.7108 37.6863 16.9886C37.8298 16.2664 38.1843 15.603 38.705 15.0823C39.2256 14.5617 39.889 14.2072 40.6112 14.0637C41.3334 13.9202 42.0819 13.9942 42.7621 14.2762C43.4422 14.5583 44.0234 15.0358 44.432 15.6483C44.8407 16.2608 45.0585 16.9807 45.0578 17.717C45.0561 18.7026 44.6638 19.6473 43.9669 20.3442C43.27 21.0412 42.3253 21.4335 41.3397 21.4352Z" fill="#00AEEE"/>
<path d="M17.5462 30.5401C11.6163 31.2579 5.7952 32.6917 0.210218 34.81C0.641879 38.6575 1.79167 42.3899 3.5999 45.8134C8.04837 40.7701 12.8505 36.0503 17.9699 31.6897C17.7882 31.3226 17.6462 30.9372 17.5462 30.5401Z" fill="#00AEEE"/>
<path d="M19.8684 51.6073C16.7119 52.4547 13.3255 53.2102 9.66978 53.8408C13.4047 57.4219 17.9715 60.018 22.9592 61.3953C23.3369 59.1783 23.6161 57.0367 23.8362 54.951C22.9616 54.7376 22.1484 54.3247 21.46 53.7446C20.7717 53.1645 20.2269 52.433 19.8684 51.6073Z" fill="#00AEEE"/>
<path d="M45.5965 34.5045C45.5954 33.9266 45.6817 33.3519 45.8527 32.7998C44.5914 32.4123 43.3378 32.0685 42.0919 31.7685C41.8883 34.6962 41.5043 37.6086 40.9423 40.489C42.7193 39.3568 44.4311 38.1253 46.0695 36.8005C45.7562 36.0756 45.5952 35.2942 45.5965 34.5045Z" fill="#00AEEE"/>
<path d="M19.3823 49.2917C19.3842 47.9117 19.8759 46.5772 20.7697 45.5257C21.6635 44.4743 22.9015 43.7743 24.2632 43.5503C24.17 40.6668 23.909 37.7912 23.4815 34.9381C23.3829 34.9381 23.2844 34.9381 23.1826 34.9381C21.6771 34.9338 20.2321 34.3449 19.1524 33.2958C13.9679 37.7102 9.12158 42.5071 4.65426 47.6461C5.61797 49.2087 6.71705 50.6837 7.93884 52.054C11.7928 51.4396 15.6124 50.6262 19.3823 49.6169C19.3922 49.5282 19.3823 49.4099 19.3823 49.2917Z" fill="#00AEEE"/>
<path d="M56.5637 37.2308C56.1314 38.0498 55.5096 38.7536 54.7501 39.2835C53.9906 39.8134 53.1154 40.1542 52.1975 40.2772C51.2796 40.4003 50.3456 40.3022 49.4733 39.9911C48.6011 39.68 47.8158 39.1649 47.1829 38.4888C45.021 40.2171 42.7414 41.7932 40.3609 43.2054C40.1145 44.2598 39.8518 45.2813 39.5792 46.2666C38.0111 51.8616 35.876 57.2819 33.2071 62.4432C39.6251 62.0378 45.762 59.663 50.7812 55.6425C55.8003 51.622 59.4575 46.1515 61.2541 39.9767C59.7038 38.9716 58.1337 38.0618 56.5637 37.2308Z" fill="#00AEEE"/>
<path d="M40.1079 23.406C39.3181 23.233 38.5727 22.8979 37.9191 22.4218C37.2655 21.9457 36.7179 21.3391 36.311 20.6404C33.437 22.4469 30.7272 24.306 28.1882 26.1618C28.5238 26.7178 28.7636 27.3263 28.8977 27.9617C32.694 28.0844 36.4735 28.5238 40.1966 29.2755C40.259 27.3475 40.2328 25.3965 40.1079 23.406Z" fill="#00AEEE"/>
<path d="M28.9404 30.0178C28.7888 30.9951 28.3913 31.9177 27.7851 32.6991C27.179 33.4805 26.3841 34.095 25.4752 34.4848C25.924 37.4945 26.1939 40.5283 26.2832 43.57C27.0458 43.7151 27.7719 44.0109 28.4188 44.4401C29.0657 44.8693 29.6204 45.4233 30.0506 46.0695C32.9864 44.8746 35.8394 43.4855 38.5905 41.9113C39.3627 38.4273 39.8667 34.8893 40.0981 31.3283C36.4229 30.5749 32.6902 30.1365 28.9404 30.0178Z" fill="#00AEEE"/>
<path d="M60.7975 21.0509C59.3762 24.3263 57.5429 27.4069 55.3418 30.2182C55.9362 30.7599 56.4115 31.4192 56.7377 32.1542C57.064 32.8892 57.234 33.684 57.237 34.4881C57.2357 34.7476 57.2159 35.0066 57.1779 35.2633C58.7118 36.0614 60.249 36.9351 61.7763 37.891C63.0051 32.2852 62.6642 26.4492 60.7909 21.0247L60.7975 21.0509Z" fill="#00AEEE"/>
<path d="M20.8111 23.8165C18.7766 17.6865 15.6949 11.9555 11.703 6.87796C8.04863 9.80336 5.09931 13.5135 3.07348 17.7334C1.04765 21.9534 -0.00278496 26.5751 5.54524e-06 31.2561C5.54524e-06 31.7389 0.0164318 32.2218 0.0394239 32.698C5.63887 30.6008 11.4686 29.1795 17.405 28.4642C17.5218 27.4609 17.8971 26.5051 18.4941 25.6904C19.0912 24.8757 19.8896 24.23 20.8111 23.8165Z" fill="#00AEEE"/>
<path d="M30.8619 47.9155C31.0618 48.72 31.0869 49.558 30.9354 50.3731C30.7839 51.1881 30.4594 51.9612 29.9837 52.6402C29.5081 53.3191 28.8923 53.8882 28.178 54.3089C27.4637 54.7296 26.6675 54.9923 25.843 55.0791C25.6197 57.2699 25.3175 59.5265 24.9135 61.8651C26.8771 62.2645 28.8745 62.4746 30.8783 62.4924C33.7434 57.1426 36.0156 51.4957 37.6544 45.6524C37.7529 45.2977 37.8482 44.9364 37.9434 44.5718C35.6432 45.8097 33.2794 46.9258 30.8619 47.9155Z" fill="#00AEEE"/>
<path d="M46.8019 30.9769C47.577 29.9532 48.6699 29.2157 49.9093 28.8798C51.1486 28.544 52.4643 28.6289 53.6503 29.1212C56.227 25.851 58.268 22.1924 59.6972 18.2821C58.4849 15.6322 56.9084 13.1646 55.0134 10.9509C52.0572 12.1596 49.1964 13.4899 46.4439 14.8924C46.9007 15.7189 47.1493 16.6442 47.1684 17.5883C47.1875 18.5325 46.9765 19.4671 46.5535 20.3114C46.1306 21.1558 45.5084 21.8844 44.7408 22.4344C43.9731 22.9845 43.0832 23.3393 42.1477 23.4684C42.2703 25.6034 42.29 27.6836 42.2068 29.7091C43.7177 30.0682 45.2494 30.4908 46.8019 30.9769Z" fill="#00AEEE"/>
<path d="M41.3397 11.8738C42.7339 11.8744 44.081 12.3783 45.1334 13.2928C47.8432 11.9034 50.6482 10.583 53.5616 9.37099C48.9134 4.62257 42.8691 1.48418 36.311 0.41394C38.0548 4.11697 39.4289 7.98304 40.4134 11.9559C40.7195 11.9034 41.0292 11.876 41.3397 11.8738Z" fill="#00AEEE"/>
<path d="M38.492 12.6227C37.4333 8.30031 35.9011 4.10793 33.9231 0.121558C33.0429 0.0460127 32.156 3.02243e-05 31.2561 3.02243e-05C24.8516 -0.00889877 18.6008 1.96076 13.3584 5.63964C15.9029 8.83691 18.0862 12.3057 19.8684 15.9828C21.0146 18.3608 22.0021 20.8121 22.8245 23.3205C22.9461 23.3205 23.0676 23.3008 23.1891 23.3008C24.5338 23.2977 25.8378 23.7622 26.8777 24.6146C29.5973 22.6209 32.5075 20.6272 35.6048 18.7024C35.3903 17.5149 35.5535 16.2899 36.0714 15.2C36.5893 14.11 37.4358 13.2098 38.492 12.6259V12.6227Z" fill="#00AEEE"/>
<path d="M83 30.6299V12.4174H89.7C90.9583 12.4174 92.0292 12.534 92.9125 12.7674C93.7958 13.0007 94.5167 13.3299 95.075 13.7549C95.6333 14.1799 96.0375 14.6965 96.2875 15.3049C96.5458 15.9132 96.675 16.5924 96.675 17.3424C96.675 17.7507 96.6167 18.1465 96.5 18.5299C96.3833 18.9049 96.2 19.259 95.95 19.5924C95.7 19.9257 95.3792 20.2299 94.9875 20.5049C94.5958 20.7715 94.125 21.0049 93.575 21.2049C94.775 21.4965 95.6625 21.9715 96.2375 22.6299C96.8125 23.2799 97.1 24.1174 97.1 25.1424C97.1 25.9174 96.95 26.6382 96.65 27.3049C96.35 27.9715 95.9083 28.5549 95.325 29.0549C94.75 29.5465 94.0375 29.934 93.1875 30.2174C92.3375 30.4924 91.3667 30.6299 90.275 30.6299H83ZM87.225 22.9049V27.4424H90.2C90.7583 27.4424 91.2125 27.3715 91.5625 27.2299C91.9208 27.0882 92.2 26.9049 92.4 26.6799C92.6 26.4549 92.7375 26.2007 92.8125 25.9174C92.8875 25.634 92.925 25.3465 92.925 25.0549C92.925 24.7215 92.8792 24.4215 92.7875 24.1549C92.7042 23.8882 92.5542 23.6632 92.3375 23.4799C92.1292 23.2965 91.85 23.1549 91.5 23.0549C91.15 22.9549 90.7083 22.9049 90.175 22.9049H87.225ZM87.225 20.0799H89.425C89.8917 20.0799 90.3125 20.0465 90.6875 19.9799C91.0625 19.9132 91.3792 19.7965 91.6375 19.6299C91.9042 19.4632 92.1042 19.234 92.2375 18.9424C92.3792 18.6507 92.45 18.284 92.45 17.8424C92.45 17.409 92.3958 17.0507 92.2875 16.7674C92.1792 16.4757 92.0125 16.2424 91.7875 16.0674C91.5625 15.8924 91.275 15.7674 90.925 15.6924C90.5833 15.6174 90.175 15.5799 89.7 15.5799H87.225V20.0799ZM106.131 27.2549H112.881V30.6299H101.906V12.4174H106.131V27.2549ZM134.344 21.5174C134.344 22.834 134.115 24.059 133.657 25.1924C133.207 26.3257 132.569 27.3132 131.744 28.1549C130.919 28.9882 129.923 29.6424 128.757 30.1174C127.598 30.5924 126.311 30.8299 124.894 30.8299C123.477 30.8299 122.186 30.5924 121.019 30.1174C119.852 29.6424 118.852 28.9882 118.019 28.1549C117.194 27.3132 116.552 26.3257 116.094 25.1924C115.644 24.059 115.419 22.834 115.419 21.5174C115.419 20.2007 115.644 18.9757 116.094 17.8424C116.552 16.709 117.194 15.7257 118.019 14.8924C118.852 14.059 119.852 13.4049 121.019 12.9299C122.186 12.4549 123.477 12.2174 124.894 12.2174C126.311 12.2174 127.598 12.459 128.757 12.9424C129.923 13.4174 130.919 14.0715 131.744 14.9049C132.569 15.7382 133.207 16.7215 133.657 17.8549C134.115 18.9882 134.344 20.209 134.344 21.5174ZM130.019 21.5174C130.019 20.6174 129.902 19.809 129.669 19.0924C129.436 18.3674 129.098 17.7549 128.657 17.2549C128.223 16.7549 127.69 16.3715 127.057 16.1049C126.423 15.8382 125.702 15.7049 124.894 15.7049C124.077 15.7049 123.348 15.8382 122.707 16.1049C122.073 16.3715 121.536 16.7549 121.094 17.2549C120.661 17.7549 120.327 18.3674 120.094 19.0924C119.861 19.809 119.744 20.6174 119.744 21.5174C119.744 22.4257 119.861 23.2424 120.094 23.9674C120.327 24.684 120.661 25.2924 121.094 25.7924C121.536 26.2924 122.073 26.6757 122.707 26.9424C123.348 27.2007 124.077 27.3299 124.894 27.3299C125.702 27.3299 126.423 27.2007 127.057 26.9424C127.69 26.6757 128.223 26.2924 128.657 25.7924C129.098 25.2924 129.436 24.684 129.669 23.9674C129.902 23.2424 130.019 22.4257 130.019 21.5174ZM147.439 27.5799C148.023 27.5799 148.539 27.5299 148.989 27.4299C149.439 27.3299 149.864 27.1965 150.264 27.0299V24.2674H148.464C148.198 24.2674 147.989 24.1965 147.839 24.0549C147.689 23.9132 147.614 23.734 147.614 23.5174V21.1924H154.089V28.8799C153.623 29.2215 153.135 29.5174 152.627 29.7674C152.127 30.009 151.589 30.209 151.014 30.3674C150.448 30.5257 149.839 30.6424 149.189 30.7174C148.548 30.7924 147.856 30.8299 147.114 30.8299C145.781 30.8299 144.548 30.5965 143.414 30.1299C142.281 29.6549 141.298 29.0049 140.464 28.1799C139.639 27.3465 138.989 26.3632 138.514 25.2299C138.048 24.0882 137.814 22.8507 137.814 21.5174C137.814 20.159 138.039 18.9132 138.489 17.7799C138.939 16.6382 139.581 15.6549 140.414 14.8299C141.256 14.0049 142.268 13.3632 143.452 12.9049C144.643 12.4465 145.973 12.2174 147.439 12.2174C148.198 12.2174 148.91 12.2799 149.577 12.4049C150.243 12.5299 150.856 12.7007 151.414 12.9174C151.981 13.134 152.498 13.3924 152.964 13.6924C153.431 13.9924 153.848 14.3174 154.214 14.6674L152.989 16.5299C152.873 16.7049 152.731 16.8424 152.564 16.9424C152.406 17.0424 152.231 17.0924 152.039 17.0924C151.789 17.0924 151.531 17.009 151.264 16.8424C150.931 16.6424 150.614 16.4715 150.314 16.3299C150.023 16.1799 149.723 16.059 149.414 15.9674C149.106 15.8757 148.781 15.809 148.439 15.7674C148.098 15.7257 147.714 15.7049 147.289 15.7049C146.498 15.7049 145.785 15.8465 145.152 16.1299C144.518 16.4049 143.977 16.7965 143.527 17.3049C143.085 17.8132 142.743 18.4257 142.502 19.1424C142.26 19.8507 142.139 20.6424 142.139 21.5174C142.139 22.484 142.273 23.3424 142.539 24.0924C142.806 24.8424 143.173 25.4757 143.639 25.9924C144.114 26.509 144.673 26.9049 145.314 27.1799C145.964 27.4465 146.673 27.5799 147.439 27.5799ZM158.412 28.6674C158.412 28.3674 158.466 28.0882 158.575 27.8299C158.691 27.5715 158.845 27.3465 159.037 27.1549C159.237 26.9632 159.47 26.8132 159.737 26.7049C160.004 26.5882 160.295 26.5299 160.612 26.5299C160.92 26.5299 161.208 26.5882 161.475 26.7049C161.741 26.8132 161.975 26.9632 162.175 27.1549C162.375 27.3465 162.529 27.5715 162.637 27.8299C162.754 28.0882 162.812 28.3674 162.812 28.6674C162.812 28.9674 162.754 29.2507 162.637 29.5174C162.529 29.7757 162.375 30.0007 162.175 30.1924C161.975 30.384 161.741 30.534 161.475 30.6424C161.208 30.7507 160.92 30.8049 160.612 30.8049C160.295 30.8049 160.004 30.7507 159.737 30.6424C159.47 30.534 159.237 30.384 159.037 30.1924C158.845 30.0007 158.691 29.7757 158.575 29.5174C158.466 29.2507 158.412 28.9674 158.412 28.6674ZM83 54.6299V36.4174H89.7C90.9583 36.4174 92.0292 36.534 92.9125 36.7674C93.7958 37.0007 94.5167 37.3299 95.075 37.7549C95.6333 38.1799 96.0375 38.6965 96.2875 39.3049C96.5458 39.9132 96.675 40.5924 96.675 41.3424C96.675 41.7507 96.6167 42.1465 96.5 42.5299C96.3833 42.9049 96.2 43.259 95.95 43.5924C95.7 43.9257 95.3792 44.2299 94.9875 44.5049C94.5958 44.7715 94.125 45.0049 93.575 45.2049C94.775 45.4965 95.6625 45.9715 96.2375 46.6299C96.8125 47.2799 97.1 48.1174 97.1 49.1424C97.1 49.9174 96.95 50.6382 96.65 51.3049C96.35 51.9715 95.9083 52.5549 95.325 53.0549C94.75 53.5465 94.0375 53.934 93.1875 54.2174C92.3375 54.4924 91.3667 54.6299 90.275 54.6299H83ZM87.225 46.9049V51.4424H90.2C90.7583 51.4424 91.2125 51.3715 91.5625 51.2299C91.9208 51.0882 92.2 50.9049 92.4 50.6799C92.6 50.4549 92.7375 50.2007 92.8125 49.9174C92.8875 49.634 92.925 49.3465 92.925 49.0549C92.925 48.7215 92.8792 48.4215 92.7875 48.1549C92.7042 47.8882 92.5542 47.6632 92.3375 47.4799C92.1292 47.2965 91.85 47.1549 91.5 47.0549C91.15 46.9549 90.7083 46.9049 90.175 46.9049H87.225ZM87.225 44.0799H89.425C89.8917 44.0799 90.3125 44.0465 90.6875 43.9799C91.0625 43.9132 91.3792 43.7965 91.6375 43.6299C91.9042 43.4632 92.1042 43.234 92.2375 42.9424C92.3792 42.6507 92.45 42.284 92.45 41.8424C92.45 41.409 92.3958 41.0507 92.2875 40.7674C92.1792 40.4757 92.0125 40.2424 91.7875 40.0674C91.5625 39.8924 91.275 39.7674 90.925 39.6924C90.5833 39.6174 90.175 39.5799 89.7 39.5799H87.225V44.0799ZM106.531 54.6299H102.281V36.4174H106.531V54.6299ZM120.989 51.5799C121.572 51.5799 122.089 51.5299 122.539 51.4299C122.989 51.3299 123.414 51.1965 123.814 51.0299V48.2674H122.014C121.747 48.2674 121.539 48.1965 121.389 48.0549C121.239 47.9132 121.164 47.734 121.164 47.5174V45.1924H127.639V52.8799C127.172 53.2215 126.685 53.5174 126.177 53.7674C125.677 54.009 125.139 54.209 124.564 54.3674C123.997 54.5257 123.389 54.6424 122.739 54.7174C122.097 54.7924 121.406 54.8299 120.664 54.8299C119.331 54.8299 118.097 54.5965 116.964 54.1299C115.831 53.6549 114.847 53.0049 114.014 52.1799C113.189 51.3465 112.539 50.3632 112.064 49.2299C111.597 48.0882 111.364 46.8507 111.364 45.5174C111.364 44.159 111.589 42.9132 112.039 41.7799C112.489 40.6382 113.131 39.6549 113.964 38.8299C114.806 38.0049 115.818 37.3632 117.002 36.9049C118.193 36.4465 119.522 36.2174 120.989 36.2174C121.747 36.2174 122.46 36.2799 123.127 36.4049C123.793 36.5299 124.406 36.7007 124.964 36.9174C125.531 37.134 126.047 37.3924 126.514 37.6924C126.981 37.9924 127.397 38.3174 127.764 38.6674L126.539 40.5299C126.422 40.7049 126.281 40.8424 126.114 40.9424C125.956 41.0424 125.781 41.0924 125.589 41.0924C125.339 41.0924 125.081 41.009 124.814 40.8424C124.481 40.6424 124.164 40.4715 123.864 40.3299C123.572 40.1799 123.272 40.059 122.964 39.9674C122.656 39.8757 122.331 39.809 121.989 39.7674C121.647 39.7257 121.264 39.7049 120.839 39.7049C120.047 39.7049 119.335 39.8465 118.702 40.1299C118.068 40.4049 117.527 40.7965 117.077 41.3049C116.635 41.8132 116.293 42.4257 116.052 43.1424C115.81 43.8507 115.689 44.6424 115.689 45.5174C115.689 46.484 115.822 47.3424 116.089 48.0924C116.356 48.8424 116.722 49.4757 117.189 49.9924C117.664 50.509 118.222 50.9049 118.864 51.1799C119.514 51.4465 120.222 51.5799 120.989 51.5799ZM142.024 46.3049C142.191 46.6215 142.349 46.9507 142.499 47.2924C142.658 47.634 142.808 47.984 142.949 48.3424C143.091 47.9757 143.241 47.6215 143.399 47.2799C143.558 46.9299 143.72 46.5924 143.887 46.2674L148.562 37.0674C148.645 36.909 148.729 36.7882 148.812 36.7049C148.904 36.6132 149.004 36.5465 149.112 36.5049C149.22 36.4632 149.341 36.4382 149.474 36.4299C149.616 36.4215 149.779 36.4174 149.962 36.4174H153.187V54.6299H149.462V44.1549C149.462 43.6465 149.487 43.0965 149.537 42.5049L144.712 51.8674C144.562 52.159 144.358 52.3799 144.099 52.5299C143.849 52.6799 143.562 52.7549 143.237 52.7549H142.662C142.337 52.7549 142.045 52.6799 141.787 52.5299C141.537 52.3799 141.337 52.159 141.187 51.8674L136.337 42.4924C136.37 42.784 136.395 43.0757 136.412 43.3674C136.429 43.6507 136.437 43.9132 136.437 44.1549V54.6299H132.712V36.4174H135.937C136.12 36.4174 136.279 36.4215 136.412 36.4299C136.554 36.4382 136.679 36.4632 136.787 36.5049C136.895 36.5465 136.991 36.6132 137.074 36.7049C137.166 36.7882 137.254 36.909 137.337 37.0674L142.024 46.3049ZM163.323 54.6299H159.073V36.4174H163.323V54.6299ZM185.731 45.5174C185.731 46.834 185.502 48.0507 185.044 49.1674C184.594 50.2757 183.956 51.2382 183.131 52.0549C182.306 52.8632 181.31 53.4965 180.144 53.9549C178.985 54.4049 177.698 54.6299 176.281 54.6299H169.206V36.4174H176.281C177.698 36.4174 178.985 36.6465 180.144 37.1049C181.31 37.5632 182.306 38.1965 183.131 39.0049C183.956 39.8132 184.594 40.7757 185.044 41.8924C185.502 43.0007 185.731 44.209 185.731 45.5174ZM181.406 45.5174C181.406 44.6174 181.289 43.8049 181.056 43.0799C180.823 42.3549 180.485 41.7424 180.044 41.2424C179.61 40.734 179.077 40.3465 178.444 40.0799C177.81 39.8049 177.089 39.6674 176.281 39.6674H173.456V51.3799H176.281C177.089 51.3799 177.81 51.2465 178.444 50.9799C179.077 50.7049 179.61 50.3174 180.044 49.8174C180.485 49.309 180.823 48.6924 181.056 47.9674C181.289 47.2424 181.406 46.4257 181.406 45.5174ZM194.886 54.6299H190.636V36.4174H194.886V54.6299ZM217.719 54.6299H214.444C214.077 54.6299 213.773 54.5465 213.531 54.3799C213.298 54.2049 213.135 53.984 213.044 53.7174L211.969 50.5424H205.044L203.969 53.7174C203.885 53.9507 203.723 54.1632 203.481 54.3549C203.239 54.5382 202.944 54.6299 202.594 54.6299H199.294L206.344 36.4174H210.669L217.719 54.6299ZM206.019 47.6674H210.994L209.319 42.6799C209.21 42.3632 209.081 41.9924 208.931 41.5674C208.789 41.134 208.648 40.6674 208.506 40.1674C208.373 40.6757 208.235 41.1465 208.094 41.5799C207.952 42.0132 207.819 42.3882 207.694 42.7049L206.019 47.6674ZM220.951 52.6674C220.951 52.3674 221.005 52.0882 221.114 51.8299C221.23 51.5715 221.385 51.3465 221.576 51.1549C221.776 50.9632 222.01 50.8132 222.276 50.7049C222.543 50.5882 222.835 50.5299 223.151 50.5299C223.46 50.5299 223.747 50.5882 224.014 50.7049C224.28 50.8132 224.514 50.9632 224.714 51.1549C224.914 51.3465 225.068 51.5715 225.176 51.8299C225.293 52.0882 225.351 52.3674 225.351 52.6674C225.351 52.9674 225.293 53.2507 225.176 53.5174C225.068 53.7757 224.914 54.0007 224.714 54.1924C224.514 54.384 224.28 54.534 224.014 54.6424C223.747 54.7507 223.46 54.8049 223.151 54.8049C222.835 54.8049 222.543 54.7507 222.276 54.6424C222.01 54.534 221.776 54.384 221.576 54.1924C221.385 54.0007 221.23 53.7757 221.114 53.5174C221.005 53.2507 220.951 52.9674 220.951 52.6674Z" fill="#00AEEE"/>
</svg>
