<svg width="444" height="44" viewBox="0 0 444 44" fill="none" xmlns="http://www.w3.org/2000/svg">
<path d="M256.579 43.3623V0.25249H268.786C272.016 0.191246 275.165 1.26166 277.688 3.27828C279.005 4.3113 280.052 5.64694 280.742 7.17162C281.431 8.69629 281.742 10.3649 281.648 12.0356C281.554 13.7062 281.058 15.3295 280.203 16.7674C279.347 18.2053 278.157 19.4153 276.733 20.2945C281.16 22.3648 283.509 26.0037 283.676 31.0998C283.75 32.7639 283.434 34.4223 282.754 35.9429C282.074 37.4635 281.048 38.8043 279.759 39.8587C277.159 42.179 273.783 43.438 270.299 43.3861L256.579 43.3623ZM268.898 18.6781C271.021 18.7081 273.093 18.0176 274.774 16.7192C275.586 16.1304 276.244 15.355 276.693 14.4583C277.142 13.5616 277.369 12.5701 277.354 11.5674C277.392 10.5099 277.165 9.45966 276.695 8.51155C276.226 7.56343 275.527 6.74732 274.663 6.1369C272.931 4.86553 270.821 4.21473 268.675 4.28956H261.062V18.6781H268.898ZM268.898 39.2774C275.562 39.2774 279.536 35.8694 279.249 30.7176C279.241 29.4974 278.942 28.2968 278.377 27.2153C277.812 26.1337 276.997 25.2025 276 24.4988C274.153 23.2168 271.748 22.5957 268.667 22.5957H261.054V39.2774H268.898Z" fill="#E7CD0C"/>
<path d="M318.999 43.3622H313.727L299.172 23.8777H303.368C307.118 23.8777 310.144 22.9301 312.326 20.9633C313.384 20.0734 314.215 18.9439 314.75 17.6684C315.285 16.393 315.507 15.0084 315.399 13.6297C315.392 12.3973 315.13 11.1798 314.63 10.0534C314.13 8.92707 313.402 7.91624 312.493 7.08442C310.534 5.23708 307.899 4.33732 304.658 4.33732H295.023V43.3543H290.604V0.308223H304.331C309.109 0.308223 312.899 1.65391 315.758 4.28955C317.146 5.56282 318.236 7.12609 318.952 8.86833C319.667 10.6106 319.991 12.489 319.898 14.3703C319.877 17.611 318.661 20.73 316.482 23.1292C314.394 25.5014 311.463 26.9667 308.313 27.214L307.078 27.3255L318.999 43.3622Z" fill="#E7CD0C"/>
<path d="M370.453 43.3622H365.676L359.576 28.8065H339.606L333.554 43.3622H328.06L347.322 0.252479H352.139L370.453 43.3622ZM358.079 24.9446L349.846 5.20524L341.453 24.9128L358.079 24.9446Z" fill="#E7CD0C"/>
<path d="M380.972 30.8529C380.941 31.9424 381.132 33.0267 381.531 34.0407C381.931 35.0547 382.532 35.9773 383.297 36.7532C384.027 37.5506 384.913 38.1886 385.901 38.6271C386.889 39.0656 387.957 39.2951 389.038 39.3013C390.15 39.3362 391.258 39.1422 392.292 38.7313C393.326 38.3204 394.265 37.7013 395.05 36.9125C395.861 36.1536 396.498 35.2286 396.919 34.2006C397.339 33.1727 397.533 32.0661 397.486 30.9564C397.375 27.1184 394.835 24.4032 389.794 22.8346L385.359 21.4809C380.645 20.0237 377.938 16.2893 377.882 11.3046C377.832 9.83246 378.113 8.36776 378.704 7.01857C379.295 5.66939 380.182 4.47012 381.298 3.50921C382.38 2.46217 383.66 1.64123 385.062 1.09436C386.465 0.547494 387.963 0.285661 389.468 0.324149C392.444 0.384561 395.278 1.60891 397.362 3.73459C399.446 5.86027 400.614 8.71797 400.616 11.6948H396.228C396.27 10.7673 396.118 9.84125 395.784 8.97512C395.449 8.10898 394.939 7.32152 394.285 6.66241C393.672 5.98241 392.93 5.43149 392.101 5.04184C391.273 4.65218 390.375 4.43163 389.46 4.39307C388.476 4.33012 387.491 4.47561 386.567 4.82003C385.644 5.16444 384.803 5.70001 384.101 6.39168C383.381 7.02252 382.812 7.80757 382.437 8.68847C382.062 9.56938 381.891 10.5235 381.935 11.4798C381.991 14.7286 383.615 16.8387 386.753 17.8499L391.793 19.4425C398.232 21.4491 401.481 25.3481 401.539 31.1396C401.578 32.7662 401.275 34.3828 400.65 35.8848C400.024 37.3868 399.09 38.7406 397.908 39.8587C396.152 41.6057 393.917 42.7921 391.486 43.2675C389.055 43.7428 386.538 43.4858 384.253 42.5289C381.968 41.5721 380.019 39.9584 378.653 37.8926C377.286 35.8267 376.563 33.4016 376.576 30.9246L380.972 30.8529Z" fill="#E7CD0C"/>
<path d="M412.663 43.3622H408.355V0.252479H412.663V43.3622Z" fill="#E7CD0C"/>
<path d="M443.845 43.3622H431.471C424.926 43.3622 420.275 39.6118 420.275 32.7241V0.252479H424.583V33.5045C424.684 35.202 425.447 36.792 426.709 37.9317C427.609 38.8235 429.178 39.2694 431.487 39.2694H443.861L443.845 43.3622Z" fill="#E7CD0C"/>
<path d="M256.579 43.3623V0.25249H268.786C272.016 0.191246 275.165 1.26166 277.688 3.27828C279.005 4.3113 280.052 5.64694 280.742 7.17162C281.431 8.69629 281.742 10.3649 281.648 12.0356C281.554 13.7062 281.058 15.3295 280.203 16.7674C279.347 18.2053 278.157 19.4153 276.733 20.2945C281.16 22.3648 283.509 26.0037 283.676 31.0998C283.75 32.7639 283.434 34.4223 282.754 35.9429C282.074 37.4635 281.048 38.8043 279.759 39.8587C277.159 42.179 273.783 43.438 270.299 43.3861L256.579 43.3623ZM268.898 18.6781C271.021 18.7081 273.093 18.0176 274.774 16.7192C275.586 16.1304 276.244 15.355 276.693 14.4583C277.142 13.5616 277.369 12.5701 277.354 11.5674C277.392 10.5099 277.165 9.45966 276.695 8.51155C276.226 7.56343 275.527 6.74732 274.663 6.1369C272.931 4.86553 270.821 4.21473 268.675 4.28956H261.062V18.6781H268.898ZM268.898 39.2774C275.562 39.2774 279.536 35.8694 279.249 30.7176C279.241 29.4974 278.942 28.2968 278.377 27.2153C277.812 26.1337 276.997 25.2025 276 24.4988C274.153 23.2168 271.748 22.5957 268.667 22.5957H261.054V39.2774H268.898Z" stroke="#E7CD0C" stroke-width="0.25" stroke-miterlimit="10"/>
<path d="M318.999 43.3622H313.727L299.172 23.8777H303.368C307.118 23.8777 310.144 22.9301 312.326 20.9633C313.384 20.0734 314.215 18.9439 314.75 17.6684C315.285 16.393 315.507 15.0084 315.399 13.6297C315.392 12.3973 315.13 11.1798 314.63 10.0534C314.13 8.92707 313.402 7.91624 312.493 7.08442C310.534 5.23708 307.899 4.33732 304.658 4.33732H295.023V43.3543H290.604V0.308223H304.331C309.109 0.308223 312.899 1.65391 315.758 4.28955C317.146 5.56282 318.236 7.12609 318.952 8.86833C319.667 10.6106 319.991 12.489 319.898 14.3703C319.877 17.611 318.661 20.73 316.482 23.1292C314.394 25.5014 311.463 26.9667 308.313 27.214L307.078 27.3255L318.999 43.3622Z" stroke="#E7CD0C" stroke-width="0.25" stroke-miterlimit="10"/>
<path d="M370.453 43.3622H365.676L359.576 28.8065H339.606L333.554 43.3622H328.06L347.322 0.252479H352.139L370.453 43.3622ZM358.079 24.9446L349.846 5.20524L341.453 24.9128L358.079 24.9446Z" stroke="#E7CD0C" stroke-width="0.25" stroke-miterlimit="10"/>
<path d="M380.972 30.8529C380.941 31.9424 381.132 33.0267 381.531 34.0407C381.931 35.0547 382.532 35.9773 383.297 36.7532C384.027 37.5506 384.913 38.1886 385.901 38.6271C386.889 39.0656 387.957 39.2951 389.038 39.3013C390.15 39.3362 391.258 39.1422 392.292 38.7313C393.326 38.3204 394.265 37.7013 395.05 36.9125C395.861 36.1536 396.498 35.2286 396.919 34.2006C397.339 33.1727 397.533 32.0661 397.486 30.9564C397.375 27.1184 394.835 24.4032 389.794 22.8346L385.359 21.4809C380.645 20.0237 377.938 16.2893 377.882 11.3046C377.832 9.83246 378.113 8.36776 378.704 7.01857C379.295 5.66939 380.182 4.47012 381.298 3.50921C382.38 2.46217 383.66 1.64123 385.062 1.09436C386.465 0.547494 387.963 0.285661 389.468 0.324149C392.444 0.384561 395.278 1.60891 397.362 3.73459C399.446 5.86027 400.614 8.71797 400.616 11.6948H396.228C396.27 10.7673 396.118 9.84125 395.784 8.97512C395.449 8.10898 394.939 7.32152 394.285 6.66241C393.672 5.98241 392.93 5.43149 392.101 5.04184C391.273 4.65218 390.375 4.43163 389.46 4.39307C388.476 4.33012 387.491 4.47561 386.567 4.82003C385.644 5.16444 384.803 5.70001 384.101 6.39168C383.381 7.02252 382.812 7.80757 382.437 8.68847C382.062 9.56938 381.891 10.5235 381.935 11.4798C381.991 14.7286 383.615 16.8387 386.753 17.8499L391.793 19.4425C398.232 21.4491 401.481 25.3481 401.539 31.1396C401.578 32.7662 401.275 34.3828 400.65 35.8848C400.024 37.3868 399.09 38.7406 397.908 39.8587C396.152 41.6057 393.917 42.7921 391.486 43.2675C389.055 43.7428 386.538 43.4858 384.253 42.5289C381.968 41.5721 380.019 39.9584 378.653 37.8926C377.286 35.8267 376.563 33.4016 376.576 30.9246L380.972 30.8529Z" stroke="#E7CD0C" stroke-width="0.25" stroke-miterlimit="10"/>
<path d="M412.663 43.3622H408.355V0.252479H412.663V43.3622Z" stroke="#E7CD0C" stroke-width="0.25" stroke-miterlimit="10"/>
<path d="M443.845 43.3622H431.471C424.926 43.3622 420.275 39.6118 420.275 32.7241V0.252479H424.583V33.5045C424.684 35.202 425.447 36.792 426.709 37.9317C427.609 38.8235 429.178 39.2694 431.487 39.2694H443.861L443.845 43.3622Z" stroke="#E7CD0C" stroke-width="0.25" stroke-miterlimit="10"/>
<path d="M0.869995 43.464V0.254003H13.21C16.4677 0.176106 19.6506 1.23706 22.21 3.254C23.4676 4.18912 24.4857 5.40884 25.181 6.8133C25.8762 8.21776 26.2289 9.76697 26.21 11.334C26.271 13.1465 25.838 14.9415 24.9572 16.5269C24.0765 18.1122 22.7812 19.4282 21.21 20.334C25.68 22.404 28.06 26.054 28.21 31.164C28.2766 32.8341 27.9493 34.4963 27.2544 36.0164C26.5595 37.5365 25.5166 38.8717 24.21 39.914C21.5733 42.2465 18.1599 43.5091 14.64 43.454L0.869995 43.464ZM13.33 18.714C15.4784 18.733 17.5706 18.0285 19.27 16.714C20.0905 16.1273 20.7566 15.3506 21.2111 14.4501C21.6657 13.5497 21.8952 12.5525 21.88 11.544C21.9189 10.4819 21.6902 9.42712 21.2149 8.47654C20.7396 7.52596 20.033 6.71009 19.16 6.10398C17.4051 4.82425 15.2704 4.17261 13.1 4.254H5.39999V18.674L13.33 18.714ZM13.33 39.364C20.06 39.364 24.08 35.944 23.8 30.784C23.7897 29.5593 23.4865 28.3547 22.916 27.271C22.3454 26.1872 21.5239 25.2556 20.52 24.554C18.3007 23.1723 15.7106 22.5055 13.1 22.644H5.39999V39.364H13.33Z" fill="#253B58"/>
<path d="M58.22 43.464C52.3869 43.5431 46.7611 41.3021 42.58 37.234C40.4903 35.338 38.8254 33.0212 37.6948 30.436C36.5642 27.8507 35.9935 25.0555 36.02 22.234C36.0213 19.3554 36.5896 16.5053 37.6924 13.8463C38.7952 11.1874 40.4109 8.77166 42.4473 6.73712C44.4837 4.70259 46.9009 3.08908 49.5608 1.98871C52.2208 0.888342 55.0714 0.322664 57.95 0.323978C63.7862 0.235826 69.4226 2.44871 73.64 6.48398C75.7652 8.35456 77.4581 10.6651 78.6012 13.2553C79.7444 15.8454 80.3104 18.6532 80.26 21.484C80.2285 27.309 77.9005 32.8865 73.7815 37.0055C69.6625 41.1245 64.085 43.4525 58.26 43.484L58.22 43.464ZM76.22 21.724C76.2185 19.4039 75.731 17.1098 74.7889 14.9896C73.8468 12.8694 72.4709 10.9701 70.75 9.414C69.0677 7.78679 67.0808 6.5075 64.9032 5.64951C62.7256 4.79152 60.4001 4.37168 58.06 4.414C55.734 4.38607 53.4263 4.82777 51.275 5.71268C49.1237 6.59759 47.1731 7.90751 45.54 9.564C43.8804 11.1613 42.5602 13.077 41.6585 15.1965C40.7567 17.316 40.2919 19.5956 40.2919 21.899C40.2919 24.2023 40.7567 26.482 41.6585 28.6015C42.5602 30.721 43.8804 32.6367 45.54 34.234C47.1899 35.8881 49.151 37.1992 51.3101 38.0917C53.4692 38.9842 55.7837 39.4404 58.12 39.434C60.492 39.4942 62.8513 39.0684 65.0526 38.1827C67.2539 37.2971 69.2507 35.9703 70.92 34.284C72.6388 32.6828 73.9989 30.7357 74.9107 28.5708C75.8225 26.4059 76.2653 24.0724 76.21 21.724H76.22Z" fill="#253B58"/>
<path d="M120.56 43.464H116.2V0.253998H120.56V43.464Z" fill="#253B58"/>
<path d="M169.77 31.884C167.951 35.3839 165.204 38.3157 161.83 40.3582C158.456 42.4007 154.584 43.4752 150.64 43.464C147.78 43.5253 144.939 42.9917 142.297 41.8968C139.654 40.802 137.268 39.1698 135.29 37.104C133.245 35.0915 131.627 32.6865 130.534 30.0332C129.441 27.38 128.895 24.5333 128.93 21.664C128.858 18.793 129.392 15.9391 130.499 13.2888C131.605 10.6386 133.258 8.25161 135.35 6.28399C137.355 4.295 139.746 2.7368 142.375 1.70504C145.005 0.673269 147.817 0.189694 150.64 0.283986C154.683 0.273535 158.65 1.38471 162.1 3.49398C165.366 5.51701 168.02 8.38932 169.78 11.804H165.01C161.5 6.75397 156.62 4.30397 150.31 4.36397C148.054 4.34045 145.818 4.77602 143.736 5.64419C141.654 6.51235 139.771 7.79496 138.2 9.41399C136.574 10.9792 135.276 12.8527 134.381 14.925C133.487 16.9973 133.014 19.227 132.99 21.484C132.936 25.2536 134.09 28.9416 136.283 32.0079C138.477 35.0741 141.594 37.3575 145.179 38.5235C148.765 39.6895 152.629 39.6769 156.206 38.4875C159.784 37.2981 162.887 34.9945 165.06 31.914L169.77 31.884Z" fill="#253B58"/>
<path d="M204.57 43.464H200.38V23.594H178.19V43.464H173.94V0.303986H178.19V19.504H200.38V0.303986H204.57V43.464Z" fill="#253B58"/>
<path d="M236.05 43.464H223.54C216.97 43.464 212.27 39.644 212.27 32.854V10.914C212.27 4.124 216.97 0.303986 223.54 0.303986H236.05V4.30399H223.54C221.27 4.30399 219.69 4.75399 218.78 5.65399C217.512 6.81773 216.741 8.4262 216.63 10.144V19.464H231.18V23.554H216.64V33.554C216.749 35.2723 217.52 36.8815 218.79 38.044C219.7 38.944 221.28 39.394 223.55 39.394H236.06L236.05 43.464Z" fill="#253B58"/>
<path d="M108.64 39.364H99.38C97.06 39.364 95.48 38.914 94.57 38.024C93.9366 37.4622 93.4205 36.7807 93.0515 36.0187C92.6825 35.2567 92.4679 34.4293 92.42 33.584V0.253998H88.06V32.804C88.06 39.704 92.76 43.464 99.38 43.464H108.64V39.364Z" fill="#253B58"/>
<path d="M0.869995 43.464V0.254003H13.21C16.4677 0.176106 19.6506 1.23706 22.21 3.254C23.4676 4.18912 24.4857 5.40884 25.181 6.8133C25.8762 8.21776 26.2289 9.76697 26.21 11.334C26.271 13.1465 25.838 14.9415 24.9572 16.5269C24.0765 18.1122 22.7812 19.4282 21.21 20.334C25.68 22.404 28.06 26.054 28.21 31.164C28.2766 32.8341 27.9493 34.4963 27.2544 36.0164C26.5595 37.5365 25.5166 38.8717 24.21 39.914C21.5733 42.2465 18.1599 43.5091 14.64 43.454L0.869995 43.464ZM13.33 18.714C15.4784 18.733 17.5706 18.0285 19.27 16.714C20.0905 16.1273 20.7566 15.3506 21.2111 14.4501C21.6657 13.5497 21.8952 12.5525 21.88 11.544C21.9189 10.4819 21.6902 9.42712 21.2149 8.47654C20.7396 7.52596 20.033 6.71009 19.16 6.10398C17.4051 4.82425 15.2704 4.17261 13.1 4.254H5.39999V18.674L13.33 18.714ZM13.33 39.364C20.06 39.364 24.08 35.944 23.8 30.784C23.7897 29.5593 23.4865 28.3547 22.916 27.271C22.3454 26.1872 21.5239 25.2556 20.52 24.554C18.3007 23.1723 15.7106 22.5055 13.1 22.644H5.39999V39.364H13.33Z" stroke="#253B58" stroke-width="0.25" stroke-miterlimit="10"/>
<path d="M58.22 43.464C52.3869 43.5431 46.7611 41.3021 42.58 37.234C40.4903 35.338 38.8254 33.0212 37.6948 30.436C36.5642 27.8507 35.9935 25.0555 36.02 22.234C36.0213 19.3554 36.5896 16.5053 37.6924 13.8463C38.7952 11.1874 40.4109 8.77166 42.4473 6.73712C44.4837 4.70259 46.9009 3.08908 49.5608 1.98871C52.2208 0.888342 55.0714 0.322664 57.95 0.323978C63.7862 0.235826 69.4226 2.44871 73.64 6.48398C75.7652 8.35456 77.4581 10.6651 78.6012 13.2553C79.7444 15.8454 80.3104 18.6532 80.26 21.484C80.2285 27.309 77.9005 32.8865 73.7815 37.0055C69.6625 41.1245 64.085 43.4525 58.26 43.484L58.22 43.464ZM76.22 21.724C76.2185 19.4039 75.731 17.1098 74.7889 14.9896C73.8468 12.8694 72.4709 10.9701 70.75 9.414C69.0677 7.78679 67.0808 6.5075 64.9032 5.64951C62.7256 4.79152 60.4001 4.37168 58.06 4.414C55.734 4.38607 53.4263 4.82777 51.275 5.71268C49.1237 6.59759 47.1731 7.90751 45.54 9.564C43.8804 11.1613 42.5602 13.077 41.6585 15.1965C40.7567 17.316 40.2919 19.5956 40.2919 21.899C40.2919 24.2023 40.7567 26.482 41.6585 28.6015C42.5602 30.721 43.8804 32.6367 45.54 34.234C47.1899 35.8881 49.151 37.1992 51.3101 38.0917C53.4692 38.9842 55.7837 39.4404 58.12 39.434C60.492 39.4942 62.8513 39.0684 65.0526 38.1827C67.2539 37.2971 69.2507 35.9703 70.92 34.284C72.6388 32.6828 73.9989 30.7357 74.9107 28.5708C75.8225 26.4059 76.2653 24.0724 76.21 21.724H76.22Z" stroke="#253B58" stroke-width="0.25" stroke-miterlimit="10"/>
<path d="M120.56 43.464H116.2V0.253998H120.56V43.464Z" stroke="#253B58" stroke-width="0.25" stroke-miterlimit="10"/>
<path d="M169.77 31.884C167.951 35.3839 165.204 38.3157 161.83 40.3582C158.456 42.4007 154.584 43.4752 150.64 43.464C147.78 43.5253 144.939 42.9917 142.297 41.8968C139.654 40.802 137.268 39.1698 135.29 37.104C133.245 35.0915 131.627 32.6865 130.534 30.0332C129.441 27.38 128.895 24.5333 128.93 21.664C128.858 18.793 129.392 15.9391 130.499 13.2888C131.605 10.6386 133.258 8.25161 135.35 6.28399C137.355 4.295 139.746 2.7368 142.375 1.70504C145.005 0.673269 147.817 0.189694 150.64 0.283986C154.683 0.273535 158.65 1.38471 162.1 3.49398C165.366 5.51701 168.02 8.38932 169.78 11.804H165.01C161.5 6.75397 156.62 4.30397 150.31 4.36397C148.054 4.34045 145.818 4.77602 143.736 5.64419C141.654 6.51235 139.771 7.79496 138.2 9.41399C136.574 10.9792 135.276 12.8527 134.381 14.925C133.487 16.9973 133.014 19.227 132.99 21.484C132.936 25.2536 134.09 28.9416 136.283 32.0079C138.477 35.0741 141.594 37.3575 145.179 38.5235C148.765 39.6895 152.629 39.6769 156.206 38.4875C159.784 37.2981 162.887 34.9945 165.06 31.914L169.77 31.884Z" stroke="#253B58" stroke-width="0.25" stroke-miterlimit="10"/>
<path d="M204.57 43.464H200.38V23.594H178.19V43.464H173.94V0.303986H178.19V19.504H200.38V0.303986H204.57V43.464Z" stroke="#253B58" stroke-width="0.25" stroke-miterlimit="10"/>
<path d="M236.05 43.464H223.54C216.97 43.464 212.27 39.644 212.27 32.854V10.914C212.27 4.124 216.97 0.303986 223.54 0.303986H236.05V4.30399H223.54C221.27 4.30399 219.69 4.75399 218.78 5.65399C217.512 6.81773 216.741 8.4262 216.63 10.144V19.464H231.18V23.554H216.64V33.554C216.749 35.2723 217.52 36.8815 218.79 38.044C219.7 38.944 221.28 39.394 223.55 39.394H236.06L236.05 43.464Z" stroke="#253B58" stroke-width="0.25" stroke-miterlimit="10"/>
<path d="M108.64 39.364H99.38C97.06 39.364 95.48 38.914 94.57 38.024C93.9366 37.4622 93.4205 36.7807 93.0515 36.0187C92.6825 35.2567 92.4679 34.4293 92.42 33.584V0.253998H88.06V32.804C88.06 39.704 92.76 43.464 99.38 43.464H108.64V39.364Z" stroke="#253B58" stroke-width="0.25" stroke-miterlimit="10"/>
</svg>
